<svg id="Layer_1" data-name="Layer 1" xmlns="http://www.w3.org/2000/svg" viewBox="0 0 235.88 81.37"><title>Krispy Kreme logo - Brandlogos.net</title><path d="M455.19,414.05H477c3.52,0,5.11-.94,5.87-4.17,7.12-30.59,14.52-62.3,14.52-62.3l-114.17,13.1L270.43,347.78s7.38,31.52,14.5,62.11c.75,3.23,2.35,4.2,5.87,4.17h22.47a6.61,6.61,0,0,1,6.6-5.58H448.58a6.61,6.61,0,0,1,6.6,5.57Zm.07,4.08v.06a6.58,6.58,0,0,1-6.67,6.48H319.87a6.58,6.58,0,0,1-6.67-6.48v-.06H290.7c-5.36,0-8.52-2.4-9.67-7.32-5.66-24.31-12.48-53.48-14.9-63.8a2.85,2.85,0,0,1,.64-2.54l.24-.24.27-.21.29-.18.31-.14.32-.1.33-.06.34,0,.34,0,114.1,13,115.44-13.24.34,0,.34,0,.33.06.32.1.31.14.29.18.27.21.24.24a2.85,2.85,0,0,1,.64,2.54q-7.47,32-14.92,64c-1.15,4.93-4.31,7.32-9.67,7.32h-22Z" transform="translate(-266.06 -343.32)" style="fill:#006938;fill-rule:evenodd"/><path d="M324.25,412.52a.23.23,0,0,1,.22-.23h3a4.29,4.29,0,0,1,0,8.59h-3a.23.23,0,0,1-.22-.23Zm3.09,6.54a2.49,2.49,0,0,0,0-5h-1.17v5h1.17Z" transform="translate(-266.06 -343.32)" style="fill:#fff;fill-rule:evenodd"/><path d="M342.68,412.17a4.39,4.39,0,1,1-.86.08,4.39,4.39,0,0,1,.86-.08m0,6.87a2.45,2.45,0,1,0-2.44-2.44,2.46,2.46,0,0,0,2.44,2.44m-18.42-6.52a.23.23,0,0,1,.22-.23h3a4.29,4.29,0,0,1,0,8.59h-3a.23.23,0,0,1-.22-.23Zm3.09,6.54a2.49,2.49,0,0,0,0-5h-1.17v5h1.17Z" transform="translate(-266.06 -343.32)" style="fill:#fff;fill-rule:evenodd"/><path d="M354,412.52a.24.24,0,0,1,.23-.23h1.51a.23.23,0,0,1,.23.23v5a1.52,1.52,0,1,0,3,0v-5a.23.23,0,0,1,.23-.23h1.51a.24.24,0,0,1,.23.23v5.07a3.49,3.49,0,0,1-7,0v-5.07Zm-11.37-.35a4.39,4.39,0,1,1-.86.08,4.39,4.39,0,0,1,.86-.08Zm0,6.87a2.45,2.45,0,1,0-2.44-2.44A2.46,2.46,0,0,0,342.68,419Z" transform="translate(-266.06 -343.32)" style="fill:#fff;fill-rule:evenodd"/><path d="M372.37,412.18a4.72,4.72,0,0,1,3,1.15.22.22,0,0,1,0,.33l-1,1a.26.26,0,0,1-.33,0,2.24,2.24,0,0,0-1.6-.59,2.46,2.46,0,0,0,0,4.92,2.89,2.89,0,0,0,1.09-.2v-.71h-.77a.22.22,0,0,1-.23-.22v-1.21a.23.23,0,0,1,.23-.23h2.46a.23.23,0,0,1,.22.23V420a.29.29,0,0,1-.1.2,6.18,6.18,0,0,1-3,.8,4.4,4.4,0,1,1,0-8.81m-18.33.34a.24.24,0,0,1,.23-.23h1.51a.23.23,0,0,1,.23.23v5a1.52,1.52,0,1,0,3,0v-5a.23.23,0,0,1,.23-.23h1.51a.24.24,0,0,1,.23.23v5.07a3.49,3.49,0,0,1-7,0Z" transform="translate(-266.06 -343.32)" style="fill:#fff;fill-rule:evenodd"/><path d="M382.86,412.52a.24.24,0,0,1,.23-.23h1.46a.23.23,0,0,1,.23.23v3.09h3.5v-3.09a.23.23,0,0,1,.23-.23H390a.24.24,0,0,1,.23.23v8.12a.24.24,0,0,1-.23.23h-1.46a.23.23,0,0,1-.23-.23v-3.23h-3.5v3.23a.23.23,0,0,1-.23.23h-1.46a.24.24,0,0,1-.23-.23Zm-10.49-.34a4.72,4.72,0,0,1,3,1.15.22.22,0,0,1,0,.33l-1,1a.26.26,0,0,1-.33,0,2.24,2.24,0,0,0-1.6-.59,2.46,2.46,0,0,0,0,4.92,2.89,2.89,0,0,0,1.09-.2v-.71h-.77a.22.22,0,0,1-.23-.22v-1.21a.23.23,0,0,1,.23-.23h2.46a.23.23,0,0,1,.22.23V420a.29.29,0,0,1-.1.2,6.18,6.18,0,0,1-3,.8,4.4,4.4,0,1,1,0-8.81Z" transform="translate(-266.06 -343.32)" style="fill:#fff;fill-rule:evenodd"/><path d="M397.85,412.39a.23.23,0,0,1,.23-.22h.31l4.88,4.71h0v-4.35a.23.23,0,0,1,.23-.23H405a.24.24,0,0,1,.23.23v8.26a.23.23,0,0,1-.23.22h-.2a.37.37,0,0,1-.16-.06l-4.84-4.87h0v4.58a.23.23,0,0,1-.23.23h-1.46a.24.24,0,0,1-.23-.23v-8.26Zm-15,.13a.24.24,0,0,1,.23-.23h1.46a.23.23,0,0,1,.23.23v3.09h3.5v-3.09a.23.23,0,0,1,.23-.23H390a.24.24,0,0,1,.23.23v8.12a.24.24,0,0,1-.23.23h-1.46a.23.23,0,0,1-.23-.23v-3.23h-3.5v3.23a.23.23,0,0,1-.23.23h-1.46a.24.24,0,0,1-.23-.23Z" transform="translate(-266.06 -343.32)" style="fill:#fff;fill-rule:evenodd"/><path d="M412.78,412.52a.24.24,0,0,1,.23-.23h1.51a.23.23,0,0,1,.23.23v5a1.52,1.52,0,1,0,3,0v-5a.23.23,0,0,1,.23-.23h1.51a.24.24,0,0,1,.23.23v5.07a3.49,3.49,0,0,1-7,0Zm-14.93-.13a.23.23,0,0,1,.23-.22h.31l4.88,4.71h0v-4.35a.23.23,0,0,1,.23-.23H405a.24.24,0,0,1,.23.23v8.26a.23.23,0,0,1-.23.22h-.2a.37.37,0,0,1-.16-.06l-4.84-4.87h0v4.58a.23.23,0,0,1-.23.23h-1.46a.24.24,0,0,1-.23-.23v-8.26Z" transform="translate(-266.06 -343.32)" style="fill:#fff;fill-rule:evenodd"/><path d="M428.37,414.09h-1.75a.23.23,0,0,1-.23-.23v-1.34a.23.23,0,0,1,.23-.23h5.44a.23.23,0,0,1,.23.23v1.34a.23.23,0,0,1-.23.23H430.3v6.55a.24.24,0,0,1-.23.23H428.6a.24.24,0,0,1-.23-.23Zm-15.59-1.57a.24.24,0,0,1,.23-.23h1.51a.23.23,0,0,1,.23.23v5a1.52,1.52,0,1,0,3,0v-5a.23.23,0,0,1,.23-.23h1.51a.24.24,0,0,1,.23.23v5.07a3.49,3.49,0,0,1-7,0Z" transform="translate(-266.06 -343.32)" style="fill:#fff;fill-rule:evenodd"/><path d="M438.74,419.71l.58-1a.31.31,0,0,1,.42-.07,3.65,3.65,0,0,0,1.74.67.77.77,0,0,0,.85-.73c0-.51-.43-.91-1.26-1.24-1.05-.42-2.37-1.24-2.37-2.71a2.54,2.54,0,0,1,2.83-2.44,4.54,4.54,0,0,1,2.62.92.31.31,0,0,1,.07.39l-.63.94c-.08.13-.3.24-.41.16a3.84,3.84,0,0,0-1.75-.73.71.71,0,0,0-.77.62c0,.45.37.8,1.34,1.19s2.47,1.13,2.47,2.8a2.69,2.69,0,0,1-2.89,2.54,3.88,3.88,0,0,1-2.75-.95c-.12-.12-.16-.17-.06-.34m-10.37-5.62h-1.75a.23.23,0,0,1-.23-.23v-1.34a.23.23,0,0,1,.23-.23h5.44a.23.23,0,0,1,.23.23v1.34a.23.23,0,0,1-.23.23H430.3v6.55a.24.24,0,0,1-.23.23H428.6a.24.24,0,0,1-.23-.23Z" transform="translate(-266.06 -343.32)" style="fill:#fff;fill-rule:evenodd"/><path d="M438.74,419.71l.58-1a.31.31,0,0,1,.42-.07,3.65,3.65,0,0,0,1.74.67.77.77,0,0,0,.85-.73c0-.51-.43-.91-1.26-1.24-1.05-.42-2.37-1.24-2.37-2.71a2.54,2.54,0,0,1,2.83-2.44,4.54,4.54,0,0,1,2.62.92.31.31,0,0,1,.07.39l-.63.94c-.08.13-.3.24-.41.16a3.84,3.84,0,0,0-1.75-.73.71.71,0,0,0-.77.62c0,.45.37.8,1.34,1.19s2.47,1.13,2.47,2.8a2.69,2.69,0,0,1-2.89,2.54,3.88,3.88,0,0,1-2.75-.95c-.12-.12-.16-.17-.06-.34Z" transform="translate(-266.06 -343.32)" style="fill:#fff;fill-rule:evenodd"/><path d="M493.35,414.51a.75.75,0,0,0-.69-.65c-.53,0-1.07,0-1.64,0v3h.55v-1.06c1.14-.06,1.06-.1,1.3,1.1l.47,0c0-.54,0-1.05-.49-1.38a.78.78,0,0,0,.5-.93m-.92.68c-.26,0-.52,0-.82.07v-1c.28,0,.53,0,.78,0a.38.38,0,0,1,.37.4c0,.25-.07.45-.33.49" transform="translate(-266.06 -343.32)" style="fill:#006938;fill-rule:evenodd"/><path d="M492.15,412.61a2.72,2.72,0,0,0-2.78,2.69,2.75,2.75,0,1,0,5.49.07,2.73,2.73,0,0,0-2.72-2.77m0,5a2.3,2.3,0,1,1,2.26-2.31,2.25,2.25,0,0,1-2.26,2.31" transform="translate(-266.06 -343.32)" style="fill:#006938;fill-rule:evenodd"/><path d="M340.61,395c1.43,0,2.81-1.81,2.77-4.29a29.22,29.22,0,0,0-.9-7.07c-.28.63-3,5.57-3.43,6.26a2.59,2.59,0,0,1,1,2.09c0,1.35-.79,1.69-.78,2.25,0,.36.65.75,1.35.75Zm20.73-9.83c.44-2.66-.24-3.64-1.11-3.64-1.71,0-2.67,2-3.21,4-.17.62-.74,2.88-1.42,5.38-.51,1.87,0,3.19,1.2,3.19,2.28,0,3.75-4.13,4.55-9Zm9.48,18.17c1.78,0,2.45-1.42,3.37-3.69-1.75.09-4.4,1.06-4.37,2.81A.93.93,0,0,0,370.82,403.37Zm13.79-25a.47.47,0,0,1,.44.59l-5.19,19.24,3.11.86c.23.06.31.39.24.63l-.27.82a.4.4,0,0,1-.49.29c-.54-.14-2.48-.66-3.22-.78-1.12,2.64-2.71,6.09-7.87,6.09-2.23,0-4.29-1.33-4.32-3.17,0-2.69,3.32-5.18,7.81-5.18.19-.5.73-2.48.73-2.48a5.18,5.18,0,0,1-4.21,1.82,3.93,3.93,0,0,1-3.62-3.75,12.45,12.45,0,0,1-9.19,3.77h0c-2.43,0-3.57-.51-4.23-1.48l-1.91,7.27a.46.46,0,0,1-.44.35h-4.05a.49.49,0,0,1-.46-.62l1.84-6.86.35-1.29a15.84,15.84,0,0,1-8.1,2.62l-.69,0c-2.86,0-4.37-1.13-5.1-2.31a6.64,6.64,0,0,1-4.63,2.33,4,4,0,0,1-3.28-1.38,3.11,3.11,0,0,1-.57-1.18l-.3.37a6.14,6.14,0,0,1-4.79,2.21c-3.09,0-3.89-3-3.85-5.11a21.76,21.76,0,0,1,.83-4.82q.7-2.8,1.42-5.6a20.11,20.11,0,0,1-2.48-.33c-.61,2-3.37,10.24-4.79,13.31-1.27,2.74-2.86,5.88-7.16,5.88-3,0-6.55-2.1-5.37-6.53.76-2.86,1.46-5.51,2.27-8.28.4-1.38.84-3.08-.91-3.08-2,0-4.08,3.11-5.39,6.77,0,.07-2.3,8.12-2.86,10.12a.45.45,0,0,1-.44.34H287.8a.49.49,0,0,1-.46-.62s8-29.6,8.08-30c.71-2.89-1.23-3.64-2.24-3.84-.35-.07-.48-.62-.15-.75,3-1.17,9.1-.9,9.2,4.38,0,2.29-1.9,8.23-2.87,11,2-2.57,10.42-14.79,20.58-14.79h11.27a5.12,5.12,0,0,0-1,3,5.25,5.25,0,0,0,.94,3H320a21.41,21.41,0,0,0-17.16,8.22,6.61,6.61,0,0,1,4.19-1.37,3.4,3.4,0,0,1,3.4,3.57c0,4.51-3.18,11.65-3.15,13.27,0,.66.12,1.42.94,1.42,1.25,0,2.51-1.78,2.94-2.69A135.09,135.09,0,0,0,316,380.76a3.86,3.86,0,0,1-2.41-2.67,2.55,2.55,0,0,1,2.59-3,2.61,2.61,0,0,1,2.81,3.28c2.06.79,5.7.41,7,.39a.42.42,0,0,1,.38.57l-.13.33c-2.88,8.76-3,13.57-1.09,13.57,1,0,2.38-1.28,2.82-2.86q1.48-5.49,3-11l.22-.73a.4.4,0,0,1,.38-.29h4.19a.42.42,0,0,1,.4.53l-3,11.23a1.58,1.58,0,0,1,0,.21c-.63,2.41-.42,3.56.23,3.56A2.43,2.43,0,0,0,335,392.8a2.75,2.75,0,0,1,2.21-3.45c2.14-3.54,5.71-10.07,6.74-11.77a.84.84,0,0,1,.73-.39h2.27a.35.35,0,0,1,.24.57,4.23,4.23,0,0,0-.65,2.46c0,2.61,1.55,6.31,1.62,10.06a7.7,7.7,0,0,1-.78,3.46,10.46,10.46,0,0,0,1.33-.77,5.73,5.73,0,0,0,2.2-3.09l2.81-10.48.21-.71a.42.42,0,0,1,.4-.3h3.87a.45.45,0,0,1,.42.57l-.39,1.43a5.31,5.31,0,0,1,4.17-2.22c3.63,0,4.72,4.09,3.73,9a19.51,19.51,0,0,1-2.51,6.74,9.69,9.69,0,0,0,2.1-1.14,7.51,7.51,0,0,0,2.69-3.81c.28-1,.61-2.14.9-3.33L371,379.4l.21-.7a.44.44,0,0,1,.42-.32h4.1a.46.46,0,0,1,.44.59l-3.3,12.13c-.29,1.29-.14,2.82,1.06,2.82s2.39-1.59,3.29-4.66l2.88-10.55a.44.44,0,0,1,.42-.33h4.1Zm-49.2-7.19a3,3,0,1,1,3-3A3,3,0,0,1,335.42,371.2Zm4.21,0a5.33,5.33,0,0,0,.94-3,5.05,5.05,0,0,0-1-3h44.18c1.58,0,3.84.3,4.77-1.06.25-.38.89,0,.95.45,0,.13,0,.4,0,.4a6,6,0,0,1-5.89,6.19h-44Zm80.51,0a22.05,22.05,0,0,0-17.36,8.22,6.87,6.87,0,0,1,4.1-1.36,3.26,3.26,0,0,1,3.46,3.3c.1,5.32-3.2,11.38-3.16,13.72,0,.66.27,1.21,1,1.21s2-.82,3.35-3.84c1.4-3.17,2.86-7.37,4.27-11.66a3.52,3.52,0,0,1-2.41-3.24,2.53,2.53,0,0,1,2.75-2.45c3.31,0,2.64,3.25,2.63,3.28,2.06.8,5.74.42,7.05.4a.42.42,0,0,1,.38.57l-.13.33c-3,9.13-3,13.56-1.14,13.56a3.39,3.39,0,0,0,2.52-1.62,13.65,13.65,0,0,1-.14-1.74c-.07-3.84,2.48-11.51,8.79-11.51,3.28,0,4.62,2.07,4.66,4.57.07,3.91-3.65,6.87-8.6,6.87-.16,1.94.85,4.26,2.78,4.26,2.08,0,4.85-.51,7.35-6.48.07-.24,2.37-8.69,2.37-8.69a.42.42,0,0,1,.4-.31H449a.45.45,0,0,1,.42.57l-.53,1.93a7.52,7.52,0,0,1,5.28-2.71c2.7,0,2.84,2,3,3.09a7.86,7.86,0,0,1,5.78-3.09,2.93,2.93,0,0,1,3.18,3.06c0,2.63-1.52,6.58-1.86,10-.13,1.24.11,2.31,1.08,2.31a3.92,3.92,0,0,0,2.65-1.61,21,21,0,0,1-.22-2.42c-.09-5,3.19-11.39,9-11.39,3.35,0,4.5,2.35,4.55,4.65.05,2.89-2.67,6.78-8.63,6.78a4.1,4.1,0,0,0,0,.57c0,1.5.81,3.68,2.91,3.68a5.63,5.63,0,0,0,4.75-2.47.49.49,0,0,1,.61-.05,5.64,5.64,0,0,1,.62.44.57.57,0,0,1,.07.72,8.83,8.83,0,0,1-7.54,4.42c-2.06,0-4.37-.66-5.39-3.12a7,7,0,0,1-5.65,3.09c-3.45,0-5.1-2-3.33-8.7.3-1.13,1.31-5,1.34-5.14.17-.75-.1-1.11-.59-1.11-1.06,0-2.91,1.43-3.6,3l-3,11.46a.42.42,0,0,1-.4.31h-4.15a.45.45,0,0,1-.42-.56l3.4-13.08c.18-.78-.12-1.1-.63-1.1a5,5,0,0,0-3.59,3L445,396.58a.42.42,0,0,1-.4.31h-4.14a.45.45,0,0,1-.42-.56l.74-2.68a8.67,8.67,0,0,1-7.2,3.44,5.94,5.94,0,0,1-5.43-3.5C427,395,425,397.1,421.91,397.1c-2.85,0-3.68-2.64-3.64-5a21.81,21.81,0,0,1,.84-4.82q.69-2.8,1.4-5.6a19.64,19.64,0,0,1-2.47-.33c-.61,2-3.94,11.68-4.79,13.31-2,3.88-3.71,5.88-7.55,5.88-3.68,0-6-2.72-5-6.59.78-3,2.65-8.9,2.62-10.24a1.12,1.12,0,0,0-1.27-1.08c-1.79,0-3.93,2.68-5.39,6.77,0,.07-2.3,8.12-2.86,10.11a.45.45,0,0,1-.44.34h-5.67a.49.49,0,0,1-.46-.62s8-29.6,8.08-30c.71-2.89-1.23-3.64-2.24-3.84-.35-.07-.48-.62-.14-.75,3-1.17,9.1-.9,9.2,4.38,0,2.29-1.9,8.23-2.87,11,2-2.56,10.61-14.79,20.77-14.79h60.9c1.58,0,4,0,4.76-1.06.26-.38.89,0,.95.45,0,.14,0,.41,0,.41a6,6,0,0,1-5.89,6.19H420.14Zm56.5,9.39c.69,0,.88.9.9,1.51.06,3.35-2,5.81-4.88,6,.42-3.81,2-7.5,4-7.5m-40.46,0c1,0,1,1.34.93,2.18a5.41,5.41,0,0,1-4.87,5.32c.42-3.81,2.1-7.51,3.93-7.51" transform="translate(-266.06 -343.32)" style="fill:#cd0f2a;fill-rule:evenodd"/></svg>